<?xml version="1.0" standalone="no"?>
<!DOCTYPE svg PUBLIC "-//W3C//DTD SVG 20010904//EN"
 "http://www.w3.org/TR/2001/REC-SVG-20010904/DTD/svg10.dtd">
<svg version="1.0" xmlns="http://www.w3.org/2000/svg"
 width="512.000000pt" height="512.000000pt" viewBox="0 0 512.000000 512.000000"
 preserveAspectRatio="xMidYMid meet">
<metadata>
Created by potrace 1.14, written by Peter Selinger 2001-2017
</metadata>
<g transform="translate(0.000000,512.000000) scale(0.100000,-0.100000)"
fill="#000000" stroke="none">
<path d="M2379 5116 c-2 -2 -38 -6 -79 -10 -64 -6 -210 -29 -315 -51 -84 -17
-325 -93 -339 -106 -6 -5 -16 -9 -23 -9 -21 0 -210 -90 -329 -157 -362 -204
-685 -516 -913 -880 -167 -270 -308 -650 -347 -938 -3 -27 -8 -59 -10 -70 -29
-153 -24 -577 10 -758 2 -12 7 -40 11 -62 36 -207 132 -481 238 -685 72 -139
172 -292 274 -420 90 -113 277 -300 388 -389 82 -66 260 -191 310 -217 11 -6
57 -31 102 -56 91 -51 287 -137 378 -167 113 -37 230 -70 285 -80 30 -6 66
-14 80 -17 105 -23 259 -37 440 -38 274 -1 393 12 630 70 185 46 454 147 498
188 46 41 63 96 49 161 -6 29 -4 32 83 82 70 40 93 49 103 40 51 -49 101 -61
160 -41 51 18 79 40 106 85 25 40 27 107 6 149 -15 28 -14 28 57 97 l71 70 38
-19 c46 -22 78 -23 124 -4 41 18 56 31 122 116 237 304 407 683 488 1090 5 25
24 152 31 205 3 28 7 136 8 240 3 202 -10 354 -44 520 -27 129 -26 128 -46
194 -9 31 -18 63 -19 71 -4 17 -52 148 -85 230 -37 95 -156 316 -226 421 -215
325 -490 586 -829 791 -65 39 -298 158 -310 158 -4 0 -21 6 -38 14 -142 64
-386 129 -617 163 -91 13 -510 29 -521 19z"/>
</g>
</svg>
